<svg width="164" height="38" viewBox="0 0 164 38" fill="none" xmlns="http://www.w3.org/2000/svg">
<g filter="url(#filter0_dd_1_3)">
<rect x="3.1" y="2.1" width="31.8" height="31.8" rx="7.9" fill="white"/>
<rect x="3.1" y="2.1" width="31.8" height="31.8" rx="7.9" fill="url(#paint0_linear_1_3)"/>
<rect x="3.1" y="2.1" width="31.8" height="31.8" rx="7.9" stroke="#D0D5DD" stroke-width="0.2"/>
<path d="M18.3546 13.1827C22.7105 11.4503 27.4742 12.8184 29.6373 14.9132C30.106 15.3671 30.5041 15.8275 30.845 16.2851C31.0394 15.2107 31.0552 14.1405 30.8681 13.1055C30.1847 9.32646 26.6195 7.18558 23.4233 8.29146C20.2415 9.39237 19.0005 11.5321 19.0005 11.5321C19.0005 11.5321 17.7595 9.39237 14.5777 8.29146C11.3812 7.18558 7.81603 9.32669 7.1328 13.1055C6.62842 15.8944 7.58356 18.9391 9.61033 21.6298C10.0372 21.7732 10.4847 21.8809 10.9586 21.943C13.7978 22.3163 14.8184 21.557 16.0178 21.0486C16.8142 20.7112 17.4134 21.0942 17.3843 21.3626C17.3392 21.7786 15.7693 22.4895 16.106 22.6388C17.4351 23.2284 19.0718 23.2334 20.3053 22.18C21.838 20.8712 22.4114 21.7658 22.4114 21.7658C22.4114 21.7658 21.6502 23.7076 19.3581 24.6717C17.4457 25.4761 15.4419 25.6743 13.6107 25.4683C15.19 26.5846 17.0035 27.5204 19.0005 28.1882C24.7099 26.2784 28.9276 22.1871 30.4145 17.9096C29.4072 16.9157 28.1716 16.2995 26.6988 16.0763C23.8674 15.647 22.8322 16.3862 21.6228 16.8708C20.8198 17.1926 20.2285 16.7978 20.263 16.5299C20.3161 16.1148 21.8999 15.4351 21.5661 15.279C20.249 14.6633 18.6125 14.626 17.3585 15.6548C15.8003 16.9332 15.2446 16.0274 15.2446 16.0274C15.2446 16.0274 16.0438 14.1015 18.3546 13.1827ZM17.2709 18.5051H18.3709V17.4052H19.6296V18.5051H20.7296V19.7639H19.6296V20.8638H18.3709V19.7639H17.2709V18.5051Z" fill="url(#paint1_linear_1_3)"/>
<path d="M17.2709 18.5052H18.3709V17.4052H19.6296V18.5052H20.7296V19.7639H19.6379C21.2597 20.5834 24.2383 21.8027 27.8177 22.3451C28.9956 20.9517 29.8813 19.4428 30.4143 17.9096C29.4069 16.9157 28.1714 16.2996 26.6986 16.0763C23.8672 15.647 22.8319 16.3863 21.6226 16.8708C20.8196 17.1926 20.2282 16.7978 20.2627 16.5299C20.3159 16.1148 21.8997 15.4351 21.5659 15.279C20.2488 14.6633 18.6123 14.626 17.3583 15.6548C15.8 16.9332 15.2444 16.0274 15.2444 16.0274C15.2444 16.0274 16.0438 14.1013 18.3543 13.1823C22.7103 11.4499 27.474 12.818 29.637 14.9128C30.1058 15.3666 30.5038 15.8271 30.8447 16.2847C31.0392 15.2102 31.055 14.14 30.8679 13.105C30.1844 9.326 26.6192 7.18512 23.423 8.291C20.2412 9.39191 19.0002 11.5316 19.0002 11.5316C19.0002 11.5316 17.7592 9.39191 14.5774 8.291C12.752 7.65927 10.8067 8.0883 9.34621 9.27521C10.0323 10.7442 10.836 12.1168 13.1255 14.8773C14.9869 17.1222 17.2709 18.5052 17.2709 18.5052Z" fill="url(#paint2_linear_1_3)"/>
<path opacity="0.31" d="M27.2769 9.64942C24.2712 8.13932 21.169 10.489 20.185 11.7298C21.882 11.3724 23.3668 11.189 25.2457 11.5838C28.0251 12.1678 29.0653 13.1714 30.3063 14.6541C30.0871 11.9068 28.3519 10.1895 27.2769 9.64942Z" fill="url(#paint3_linear_1_3)"/>
</g>
<path d="M46.728 28V10.12H49.848L56.544 19.216H55.056L61.608 10.12H64.728V28H61.44V13.84L62.712 14.152L55.92 23.2H55.536L48.912 14.152L49.992 13.84V28H46.728ZM74.0779 28.288C72.7339 28.288 71.5579 27.984 70.5499 27.376C69.5419 26.768 68.7579 25.944 68.1979 24.904C67.6379 23.864 67.3579 22.712 67.3579 21.448C67.3579 20.136 67.6379 18.976 68.1979 17.968C68.7739 16.944 69.5499 16.136 70.5259 15.544C71.5179 14.952 72.6219 14.656 73.8379 14.656C74.8619 14.656 75.7579 14.824 76.5259 15.16C77.3099 15.496 77.9739 15.96 78.5179 16.552C79.0619 17.144 79.4779 17.824 79.7659 18.592C80.0539 19.344 80.1979 20.16 80.1979 21.04C80.1979 21.264 80.1819 21.496 80.1499 21.736C80.1339 21.976 80.0939 22.184 80.0299 22.36H69.9499V19.96H78.2539L76.7659 21.088C76.9099 20.352 76.8699 19.696 76.6459 19.12C76.4379 18.544 76.0859 18.088 75.5899 17.752C75.1099 17.416 74.5259 17.248 73.8379 17.248C73.1819 17.248 72.5979 17.416 72.0859 17.752C71.5739 18.072 71.1819 18.552 70.9099 19.192C70.6539 19.816 70.5579 20.576 70.6219 21.472C70.5579 22.272 70.6619 22.984 70.9339 23.608C71.2219 24.216 71.6379 24.688 72.1819 25.024C72.7419 25.36 73.3819 25.528 74.1019 25.528C74.8219 25.528 75.4299 25.376 75.9259 25.072C76.4379 24.768 76.8379 24.36 77.1259 23.848L79.6699 25.096C79.4139 25.72 79.0139 26.272 78.4699 26.752C77.9259 27.232 77.2779 27.608 76.5259 27.88C75.7899 28.152 74.9739 28.288 74.0779 28.288ZM88.6532 28.288C87.3892 28.288 86.2612 27.992 85.2692 27.4C84.2772 26.792 83.4932 25.968 82.9172 24.928C82.3412 23.888 82.0532 22.736 82.0532 21.472C82.0532 20.192 82.3412 19.04 82.9172 18.016C83.4932 16.992 84.2772 16.176 85.2692 15.568C86.2772 14.96 87.3972 14.656 88.6292 14.656C89.6212 14.656 90.5012 14.856 91.2692 15.256C92.0532 15.64 92.6692 16.184 93.1172 16.888L92.6372 17.536V9.832H95.7812V28H92.8052V25.48L93.1412 26.104C92.6932 26.808 92.0692 27.352 91.2692 27.736C90.4692 28.104 89.5972 28.288 88.6532 28.288ZM88.9892 25.408C89.7092 25.408 90.3412 25.24 90.8852 24.904C91.4292 24.568 91.8532 24.104 92.1572 23.512C92.4772 22.92 92.6372 22.24 92.6372 21.472C92.6372 20.72 92.4772 20.048 92.1572 19.456C91.8532 18.848 91.4292 18.376 90.8852 18.04C90.3412 17.704 89.7092 17.536 88.9892 17.536C88.2852 17.536 87.6532 17.712 87.0932 18.064C86.5332 18.4 86.0932 18.864 85.7732 19.456C85.4692 20.032 85.3172 20.704 85.3172 21.472C85.3172 22.24 85.4692 22.92 85.7732 23.512C86.0932 24.104 86.5332 24.568 87.0932 24.904C87.6532 25.24 88.2852 25.408 88.9892 25.408ZM98.7062 28V14.944H101.85V28H98.7062ZM98.7062 13.48V10.12H101.85V13.48H98.7062Z" fill="#1A76E3"/>
<path d="M105.017 28V10.12H111.689C112.905 10.12 113.977 10.344 114.905 10.792C115.849 11.224 116.585 11.864 117.113 12.712C117.641 13.544 117.905 14.56 117.905 15.76C117.905 16.944 117.633 17.96 117.089 18.808C116.561 19.64 115.833 20.28 114.905 20.728C113.977 21.176 112.905 21.4 111.689 21.4H108.281V28H105.017ZM108.281 18.52H111.737C112.329 18.52 112.841 18.408 113.273 18.184C113.705 17.944 114.041 17.616 114.281 17.2C114.521 16.784 114.641 16.304 114.641 15.76C114.641 15.2 114.521 14.72 114.281 14.32C114.041 13.904 113.705 13.584 113.273 13.36C112.841 13.12 112.329 13 111.737 13H108.281V18.52ZM120.316 28V14.944H123.268V17.848L123.028 17.416C123.332 16.44 123.804 15.76 124.444 15.376C125.1 14.992 125.884 14.8 126.796 14.8H127.564V17.584H126.436C125.54 17.584 124.82 17.864 124.276 18.424C123.732 18.968 123.46 19.736 123.46 20.728V28H120.316ZM135.676 28.288C134.396 28.288 133.228 27.992 132.172 27.4C131.132 26.808 130.3 26 129.676 24.976C129.068 23.952 128.764 22.784 128.764 21.472C128.764 20.16 129.068 18.992 129.676 17.968C130.3 16.944 131.132 16.136 132.172 15.544C133.212 14.952 134.38 14.656 135.676 14.656C136.956 14.656 138.116 14.952 139.156 15.544C140.196 16.136 141.02 16.944 141.628 17.968C142.252 18.976 142.564 20.144 142.564 21.472C142.564 22.784 142.252 23.952 141.628 24.976C141.004 26 140.172 26.808 139.132 27.4C138.092 27.992 136.94 28.288 135.676 28.288ZM135.676 25.408C136.38 25.408 136.996 25.24 137.524 24.904C138.068 24.568 138.492 24.104 138.796 23.512C139.116 22.904 139.276 22.224 139.276 21.472C139.276 20.704 139.116 20.032 138.796 19.456C138.492 18.864 138.068 18.4 137.524 18.064C136.996 17.712 136.38 17.536 135.676 17.536C134.956 17.536 134.324 17.712 133.78 18.064C133.236 18.4 132.804 18.864 132.484 19.456C132.18 20.032 132.028 20.704 132.028 21.472C132.028 22.224 132.18 22.904 132.484 23.512C132.804 24.104 133.236 24.568 133.78 24.904C134.324 25.24 134.956 25.408 135.676 25.408Z" fill="#22C55E"/>
<defs>
<filter id="filter0_dd_1_3" x="0" y="0" width="38" height="38" filterUnits="userSpaceOnUse" color-interpolation-filters="sRGB">
<feFlood flood-opacity="0" result="BackgroundImageFix"/>
<feColorMatrix in="SourceAlpha" type="matrix" values="0 0 0 0 0 0 0 0 0 0 0 0 0 0 0 0 0 0 127 0" result="hardAlpha"/>
<feOffset dy="1"/>
<feGaussianBlur stdDeviation="1"/>
<feColorMatrix type="matrix" values="0 0 0 0 0.0627451 0 0 0 0 0.0941176 0 0 0 0 0.156863 0 0 0 0.06 0"/>
<feBlend mode="normal" in2="BackgroundImageFix" result="effect1_dropShadow_1_3"/>
<feColorMatrix in="SourceAlpha" type="matrix" values="0 0 0 0 0 0 0 0 0 0 0 0 0 0 0 0 0 0 127 0" result="hardAlpha"/>
<feOffset dy="1"/>
<feGaussianBlur stdDeviation="1.5"/>
<feColorMatrix type="matrix" values="0 0 0 0 0.0627451 0 0 0 0 0.0941176 0 0 0 0 0.156863 0 0 0 0.1 0"/>
<feBlend mode="normal" in2="effect1_dropShadow_1_3" result="effect2_dropShadow_1_3"/>
<feBlend mode="normal" in="SourceGraphic" in2="effect2_dropShadow_1_3" result="shape"/>
</filter>
<linearGradient id="paint0_linear_1_3" x1="19" y1="2" x2="19" y2="34" gradientUnits="userSpaceOnUse">
<stop stop-color="white"/>
<stop offset="1" stop-color="#D0D5DD"/>
</linearGradient>
<linearGradient id="paint1_linear_1_3" x1="10.1989" y1="24.2137" x2="27.8347" y2="6.57788" gradientUnits="userSpaceOnUse">
<stop stop-color="#1A76E3"/>
<stop offset="0.0001" stop-color="#1A83E3"/>
<stop offset="0.2766" stop-color="#1A9BE3"/>
<stop offset="0.4546" stop-color="#1ABFE3"/>
<stop offset="0.587" stop-color="#1ABFE3"/>
</linearGradient>
<linearGradient id="paint2_linear_1_3" x1="10.1388" y1="24.2537" x2="27.8274" y2="6.56509" gradientUnits="userSpaceOnUse">
<stop stop-color="#22C55E"/>
<stop offset="0.78512" stop-color="#66D87B"/>
<stop offset="1" stop-color="#79DD83"/>
</linearGradient>
<linearGradient id="paint3_linear_1_3" x1="24.8608" y1="13.5072" x2="28.5287" y2="10.1131" gradientUnits="userSpaceOnUse">
<stop stop-color="#22C55E"/>
<stop offset="1" stop-color="#79DD83"/>
</linearGradient>
</defs>
</svg>
