<svg width="24" height="21" viewBox="0 0 24 21" fill="none" xmlns="http://www.w3.org/2000/svg">
<path d="M11.3546 5.18273C15.7105 3.45032 20.4742 4.81843 22.6373 6.91324C23.106 7.36707 23.5041 7.82752 23.845 8.28513C24.0394 7.21068 24.0552 6.14047 23.8681 5.10547C23.1847 1.32646 19.6195 -0.814418 16.4233 0.291457C13.2415 1.39237 12.0005 3.53206 12.0005 3.53206C12.0005 3.53206 10.7595 1.39237 7.57767 0.291457C4.38124 -0.814418 0.816032 1.32669 0.132804 5.10547C-0.371585 7.89438 0.583564 10.9391 2.61033 13.6298C3.03723 13.7732 3.48468 13.8809 3.9586 13.943C6.79782 14.3163 7.81841 13.557 9.01784 13.0486C9.81423 12.7112 10.4134 13.0942 10.3843 13.3626C10.3392 13.7786 8.76931 14.4895 9.10596 14.6388C10.4351 15.2284 12.0718 15.2334 13.3053 14.18C14.838 12.8712 15.4114 13.7658 15.4114 13.7658C15.4114 13.7658 14.6502 15.7076 12.3581 16.6717C10.4457 17.4761 8.44187 17.6743 6.61071 17.4683C8.19003 18.5846 10.0035 19.5204 12.0005 20.1882C17.7099 18.2784 21.9276 14.1871 23.4145 9.90957C22.4072 8.91568 21.1716 8.29954 19.6988 8.07629C16.8674 7.64702 15.8322 8.38624 14.6228 8.87079C13.8198 9.19256 13.2285 8.79779 13.263 8.52988C13.3161 8.1148 14.8999 7.43511 14.5661 7.27895C13.249 6.66329 11.6125 6.62596 10.3585 7.65482C8.80025 8.93316 8.2446 8.02738 8.2446 8.02738C8.2446 8.02738 9.04383 6.10149 11.3546 5.18273ZM10.2709 10.5051H11.3709V9.40518H12.6296V10.5051H13.7296V11.7639H12.6296V12.8638H11.3709V11.7639H10.2709V10.5051Z" fill="url(#paint0_linear_1_7)"/>
<path d="M10.2709 10.5052H11.3709V9.4052H12.6296V10.5052H13.7296V11.7639H12.6379C14.2597 12.5834 17.2383 13.8027 20.8177 14.3451C21.9956 12.9517 22.8813 11.4428 23.4143 9.90958C22.4069 8.91569 21.1714 8.29956 19.6986 8.0763C16.8672 7.64704 15.8319 8.38626 14.6226 8.8708C13.8196 9.19257 13.2282 8.7978 13.2627 8.5299C13.3159 8.11481 14.8997 7.43513 14.5659 7.27897C13.2488 6.66331 11.6123 6.62598 10.3583 7.65484C8.80002 8.93317 8.24436 8.0274 8.24436 8.0274C8.24436 8.0274 9.04383 6.10127 11.3543 5.18227C15.7103 3.44987 20.474 4.81798 22.637 6.91278C23.1058 7.36662 23.5038 7.82706 23.8447 8.28467C24.0392 7.21022 24.055 6.14002 23.8679 5.10502C23.1844 1.326 19.6192 -0.814876 16.423 0.290999C13.2412 1.39191 12.0002 3.53161 12.0002 3.53161C12.0002 3.53161 10.7592 1.39191 7.57744 0.290999C5.75195 -0.340727 3.80669 0.0883 2.34621 1.27521C3.03227 2.7442 3.83598 4.11679 6.12546 6.87735C7.98685 9.12217 10.2709 10.5052 10.2709 10.5052Z" fill="url(#paint1_linear_1_7)"/>
<path opacity="0.31" d="M20.2769 1.64942C17.2712 0.139321 14.169 2.48904 13.185 3.72981C14.882 3.37237 16.3668 3.18904 18.2457 3.58381C21.0251 4.16781 22.0653 5.17139 23.3063 6.65408C23.0871 3.90676 21.3519 2.18948 20.2769 1.64942Z" fill="url(#paint2_linear_1_7)"/>
<defs>
<linearGradient id="paint0_linear_1_7" x1="3.19887" y1="16.2137" x2="20.8347" y2="-1.42212" gradientUnits="userSpaceOnUse">
<stop stop-color="#1A76E3"/>
<stop offset="0.0001" stop-color="#1A83E3"/>
<stop offset="0.2766" stop-color="#1A9BE3"/>
<stop offset="0.4546" stop-color="#1ABFE3"/>
<stop offset="0.587" stop-color="#1ABFE3"/>
</linearGradient>
<linearGradient id="paint1_linear_1_7" x1="3.13879" y1="16.2537" x2="20.8274" y2="-1.43491" gradientUnits="userSpaceOnUse">
<stop stop-color="#22C55E"/>
<stop offset="0.78512" stop-color="#66D87B"/>
<stop offset="1" stop-color="#79DD83"/>
</linearGradient>
<linearGradient id="paint2_linear_1_7" x1="17.8608" y1="5.50722" x2="21.5287" y2="2.11305" gradientUnits="userSpaceOnUse">
<stop stop-color="#22C55E"/>
<stop offset="1" stop-color="#79DD83"/>
</linearGradient>
</defs>
</svg>
